<svg xmlns="http://www.w3.org/2000/svg" width="21" height="20" viewBox="0 0 21 20">
    <path fill="#FAC92F" fill-rule="evenodd" d="M11.443.682l1.705 5.23c.188.58.73.971 1.34.971h5.519c.96 0 1.36 1.224.582 1.787l-4.465 3.232c-.494.358-.7.992-.51 1.57l1.704 5.231c.297.91-.748 1.666-1.524 1.104l-4.465-3.233a1.413 1.413 0 0 0-1.657 0l-4.465 3.233c-.776.562-1.822-.194-1.525-1.104l1.705-5.23a1.403 1.403 0 0 0-.512-1.57L.41 8.67c-.776-.563-.377-1.787.583-1.787h5.519c.61 0 1.151-.391 1.34-.97L9.558.683c.297-.91 1.588-.91 1.885 0"/>
</svg>
