<svg xmlns="http://www.w3.org/2000/svg" width="21" height="20" viewBox="0 0 21 20">
    <path fill="#A6A6A6" fill-rule="evenodd" d="M14.951 10.282a3.389 3.389 0 0 0-1.239 3.81l.741 2.275-1.95-1.412a3.402 3.402 0 0 0-4.004 0l-1.952 1.412.741-2.273a3.392 3.392 0 0 0-1.24-3.812L4.116 8.883h2.396a3.4 3.4 0 0 0 3.241-2.35l.747-2.29.746 2.29a3.4 3.4 0 0 0 3.242 2.35h2.395l-1.932 1.4zm5.056-3.399h-5.519a1.41 1.41 0 0 1-1.34-.97L11.442.682c-.297-.91-1.589-.91-1.886 0l-1.705 5.23c-.189.58-.73.97-1.34.97H.993c-.96 0-1.359 1.224-.583 1.786l4.465 3.233c.494.358.701.992.513 1.57l-1.707 5.231c-.296.91.75 1.666 1.526 1.104l4.465-3.233a1.41 1.41 0 0 1 1.656 0l4.466 3.233c.776.562 1.821-.194 1.524-1.104l-1.705-5.23a1.4 1.4 0 0 1 .511-1.57l4.465-3.234c.778-.562.378-1.786-.582-1.786z"/>
</svg>
