<svg xmlns="http://www.w3.org/2000/svg" width="14" height="18" viewBox="0 0 14 18">
    <path fill="#A6A6A6" fill-rule="evenodd" d="M11.765 6.067H1.58a.81.81 0 0 0-.807.877l.865 10.355c.033.397.365.701.762.701h8.546a.765.765 0 0 0 .762-.7l.864-10.356a.809.809 0 0 0-.807-.877zm.821-1.413H.766a.756.756 0 0 1-.732-.984l.361-1.368a.729.729 0 0 1 .587-.515c.291-.058 2.533-.259 3.077-.292a.512.512 0 0 0 .437-.339c.04-.12.294-.68.453-.881C5.022.183 5.344 0 6.673 0c1.328 0 1.657.183 1.73.275.159.201.415.76.454.881.038.121.19.326.437.339.543.033 2.786.234 3.076.292.291.057.504.238.587.515l.362 1.368a.756.756 0 0 1-.733.984z"/>
</svg>
